<svg width="168" height="43" viewBox="0 0 168 43" fill="none" xmlns="http://www.w3.org/2000/svg">
<path d="M156.419 36.48C149.899 36.48 145.339 31.44 145.339 24.84C145.339 18.28 149.939 13.24 156.419 13.24C159.899 13.24 162.539 14.76 164.139 17.08V13.68H167.979V36H164.139V32.64C162.539 35 159.899 36.48 156.419 36.48ZM156.739 32.96C160.779 32.96 164.099 29.56 164.099 24.84C164.099 20.16 160.779 16.76 156.739 16.76C152.539 16.76 149.339 20.08 149.339 24.84C149.339 29.64 152.539 32.96 156.739 32.96Z" fill="white"/>
<path d="M140.776 36C137.456 36 135.216 34.44 135.216 30.6V17.12H131.216V13.68H135.216V9.23999H139.096V13.68H144.736V17.12H139.096V30.2C139.096 31.84 140.016 32.56 141.656 32.56H144.576V36H140.776Z" fill="white"/>
<path d="M126.508 36C123.188 36 120.948 34.44 120.948 30.6V17.12H116.948V13.68H120.948V9.23999H124.828V13.68H130.468V17.12H124.828V30.2C124.828 31.84 125.748 32.56 127.388 32.56H130.308V36H126.508Z" fill="white"/>
<path d="M105.73 36.48C99.13 36.48 94.33 31.64 94.33 24.84C94.33 18.04 99.17 13.2 105.73 13.2C111.73 13.2 116.37 17.36 116.85 22.96C116.93 23.92 116.93 24.96 116.85 25.88H98.37C98.81 30.28 101.85 33.16 105.77 33.16C108.49 33.16 111.25 31.76 112.25 29.12H116.29C115.29 33.48 111.29 36.48 105.73 36.48ZM98.53 22.84H112.81C112.25 18.72 108.85 16.52 105.77 16.52C102.13 16.52 99.25 19.04 98.53 22.84Z" fill="white"/>
<path d="M85.5203 36.48C82.0403 36.48 78.0003 34.96 77.7603 29.96H81.2403C81.4403 32.24 83.2403 33.4 85.5203 33.4C87.7603 33.4 89.3203 32.2 89.3203 30.36C89.3203 28.84 88.5603 27.52 86.3203 26.84L83.4403 26C79.8803 24.92 78.2003 22.6 78.2003 19.6C78.2003 15.88 81.3203 13.24 85.4803 13.24C88.4403 13.24 92.1603 14.72 92.6003 19.48H89.2803C89.0403 17.56 87.4803 16.28 85.4403 16.28C83.4003 16.28 81.8803 17.56 81.8803 19.32C81.8803 20.88 82.7603 21.96 84.9203 22.6L87.6403 23.4C91.4803 24.52 93.0003 27 93.0003 30C93.0003 33.68 90.1203 36.48 85.5203 36.48Z" fill="white"/>
<path d="M65.083 36.48C58.323 36.48 53.683 31.68 53.683 24.88C53.683 18.08 58.363 13.28 65.083 13.28C71.763 13.28 76.523 18.08 76.523 24.88C76.523 31.68 71.803 36.48 65.083 36.48ZM65.083 32.96C69.283 32.96 72.523 29.56 72.523 24.88C72.523 20.16 69.283 16.8 65.083 16.8C60.843 16.8 57.683 20.16 57.683 24.88C57.683 29.56 60.843 32.96 65.083 32.96Z" fill="white"/>
<path d="M43.4743 19.08C43.4743 15.24 45.7143 13.68 49.0343 13.68H54.1143V17.12H49.9143C48.2743 17.12 47.3543 17.84 47.3543 19.48V36H43.4743V19.08Z" fill="white"/>
<path d="M14.3633 0.0110931C21.5452 0.0112312 27.4022 4.08364 27.7115 9.19087C27.7117 9.19464 27.7149 9.19762 27.7186 9.19762C27.7225 9.19762 27.7257 9.20069 27.7258 9.20455L28.6639 40.546C28.6977 41.6735 27.7928 42.6058 26.6648 42.6058H2.06076C0.932746 42.6058 0.0279072 41.6735 0.0616567 40.546L0.999792 9.20455C0.999908 9.20069 1.00307 9.19762 1.00694 9.19762C1.01072 9.19762 1.01385 9.19464 1.01408 9.19087C1.32341 4.08355 7.18124 0.0110931 14.3633 0.0110931Z" fill="white"/>
</svg>
